Coordinates
version=1
nRows=6
nColumns=107
inDegrees=yes

Units are S.I. units (second, meters, Newtons, ...)
If the header above contains a line with 'inDegrees', this indicates whether rotational values are in degrees (yes) or radians (no).

endheader
time	sternoclavicular_r2	sternoclavicular_r3	unrotscap_r3	unrotscap_r2	acromioclavicular_r2	acromioclavicular_r3	acromioclavicular_r1	unrothum_r1	unrothum_r3	unrothum_r2	elv_angle	shoulder_elv	shoulder1_r2	shoulder_rot	elbow_flexion	pro_sup	deviation	flexion	proximal_distal_r1	proximal_distal_r3	cmc_flexion	cmc_abduction	mp_flexion	ip_flexion	mcp2_flexion	mcp2_abduction	pm2_flexion	md2_flexion	mcp3_flexion	mcp3_abduction	pm3_flexion	md3_flexion	mcp4_flexion	mcp4_abduction	pm4_flexion	md4_flexion	mcp5_flexion	mcp5_abduction	pm5_flexion	md5_flexion	bicpt_tx	bicpt_ty	bicpt_tz	bicpt2_tx	bicpt2_ty	bicpt2_tz	ptpt_tx	ptpt_ty	ptpt_tz	FCUpt_tx	FCUpt_ty	FCUpt_tz	EDCpt_tx	EDCpt_ty	EDCpt_tz	APLpt_tx	APLpt_ty	APLpt_tz	FPLpt_tx	FPLpt_ty	FPLpt_tz	FPLpt2_tx	FPLpt2_ty	FPLpt2_tz	PEC1pt2_tx	PEC1pt2_ty	PEC1pt2_tz	PEC1pt3_tx	PEC1pt3_ty	PEC1pt3_tz	PEC2pt2_tx	PEC2pt2_ty	PEC2pt2_tz	PEC2pt3_tx	PEC2pt3_ty	PEC2pt3_tz	PEC3pt2_tx	PEC3pt2_ty	PEC3pt2_tz	PEC3pt3_tx	PEC3pt3_ty	PEC3pt3_tz	DELT2pt2a_tx	DELT2pt2a_ty	DELT2pt2a_tz	DELT2pt2_tx	DELT2pt2_ty	DELT2pt2_tz	LAT1pt2_tx	LAT1pt2_ty	LAT1pt2_tz	LAT1pt3_tx	LAT1pt3_ty	LAT1pt3_tz	LAT2pt2_tx	LAT2pt2_ty	LAT2pt2_tz	LAT2pt3_tx	LAT2pt3_ty	LAT2pt3_tz	LAT3pt2_tx	LAT3pt2_ty	LAT3pt2_tz	LAT3pt3_tx	LAT3pt3_ty	LAT3pt3_tz
      0.00000000	     -0.33220762	      0.14070747	     -0.14070747	      0.33220762	     -0.06726528	      0.54361437	      0.24435092	     -0.24435092	     -0.54361437	      0.06726528	     97.76823494	     78.65310610	     -1.70637760	    -12.60114124	     27.41187457	     27.85925916	      0.11617275	     -0.85537116	      0.14661631	     -0.42768558	      7.71043208	    -11.62484405	    -20.27139680	     -5.92420750	     23.18072139	      6.70325701	     29.45889178	     -2.71301544	     26.72382802	     -0.38648543	     23.22862377	     19.68680271	     25.32362642	     -4.69679184	     19.13316682	     22.66162705	     25.63317452	     -4.60806159	      7.77551365	      5.05780788	      0.00080670	     -0.03074182	     -0.00480606	      0.01638313	     -0.01764657	     -0.00866274	      0.00549152	     -0.06623105	     -0.00229421	      0.00658067	     -0.18372669	     -0.00024473	     -0.00334310	      0.00090912	      0.00019364	      0.00026243	      0.00010497	      0.00052487	      0.00033592	      0.00100775	      0.00056686	      0.00003546	     -0.00015974	     -0.00019168	      0.00257808	      0.00904511	      0.00629225	     -0.00843337	      0.02036243	     -0.01931372	      0.00257808	      0.00904511	      0.00629225	      0.00056805	      0.01887676	     -0.00991904	      0.00404092	      0.00502987	      0.01619040	      0.00000000	      0.00827724	      0.00000000	     -0.00738466	     -0.03412674	     -0.00682761	      0.00914071	     -0.00021633	     -0.00118656	     -0.00091762	      0.01538106	     -0.00629225	      0.00253438	      0.02219767	     -0.01835241	     -0.00616117	      0.01332734	     -0.00563681	     -0.01284668	      0.02814036	     -0.03150497	     -0.02412031	      0.01490041	     -0.00755944	     -0.01599281	      0.03250998	     -0.03937028
      0.03333333	     -0.33212525	      0.14067258	     -0.14067258	      0.33212525	     -0.06724861	      0.54347960	      0.24429034	     -0.24429034	     -0.54347960	      0.06724861	     97.76643640	     78.63360623	     -1.70634621	    -12.59828026	     27.40215312	     27.85877148	      0.11614974	     -0.85533387	      0.14658926	     -0.42766694	      7.71085444	    -11.62510911	    -20.27084725	     -5.92402133	     23.18446720	      6.70297485	     29.45923980	     -2.71314585	     26.72171188	     -0.38687142	     23.22817280	     19.68671786	     25.32448623	     -4.69657511	     19.13315217	     22.66157189	     25.63370021	     -4.60864731	      7.77552145	      5.05776966	      0.00080638	     -0.03074071	     -0.00480589	      0.01638311	     -0.01764393	     -0.00866278	      0.00549155	     -0.06623103	     -0.00229417	      0.00658062	     -0.18372670	     -0.00024472	     -0.00334304	      0.00090910	      0.00019364	      0.00026245	      0.00010498	      0.00052490	      0.00033594	      0.00100781	      0.00056689	      0.00003546	     -0.00015974	     -0.00019169	      0.00257744	      0.00904287	      0.00629069	     -0.00843128	      0.02035738	     -0.01930894	      0.00257744	      0.00904287	      0.00629069	      0.00056791	      0.01887208	     -0.00991658	      0.00404020	      0.00502863	      0.01618871	      0.00000000	      0.00827311	      0.00000000	     -0.00738283	     -0.03411828	     -0.00682419	      0.00913868	     -0.00021626	     -0.00118607	     -0.00091739	      0.01537725	     -0.00629069	      0.00253375	      0.02219217	     -0.01834786	     -0.00615964	      0.01332404	     -0.00563541	     -0.01284350	      0.02813338	     -0.03149715	     -0.02411433	      0.01489671	     -0.00755757	     -0.01598885	      0.03250192	     -0.03936052
      0.06666667	     -0.33087230	      0.14014189	     -0.14014189	      0.33087230	     -0.06699491	      0.54142931	      0.24336875	     -0.24336875	     -0.54142931	      0.06699491	     97.99535318	     78.33695910	     -1.71034156	    -13.94639472	     27.48800846	     28.95283146	      0.11913920	     -0.82895250	      0.15007109	     -0.41447625	      7.07700742	    -11.87070261	    -18.51766797	     -6.55885124	     24.40007441	      6.44455628	     28.51424037	     -6.42351405	     25.51700827	     -0.31617357	     24.07172161	     20.00581061	     25.46867766	     -4.32072435	     17.52344323	     23.29210168	     25.08777604	     -4.65693585	      7.81353449	      5.04975291	      0.00080922	     -0.03075055	     -0.00480747	      0.01641417	     -0.01766725	     -0.00856378	      0.00541071	     -0.06628330	     -0.00238231	      0.00668686	     -0.18370755	     -0.00026205	     -0.00347433	      0.00094969	      0.00019266	      0.00027267	      0.00010907	      0.00054534	      0.00034902	      0.00104706	      0.00058897	      0.00003630	     -0.00014911	     -0.00017894	      0.00256771	      0.00900876	      0.00626696	     -0.00839947	      0.02028059	     -0.01923609	      0.00256771	      0.00900876	      0.00626696	      0.00056577	      0.01880089	     -0.00987917	      0.00402922	      0.00500966	      0.01616288	      0.00000000	      0.00821033	      0.00000000	     -0.00735498	     -0.03398956	     -0.00677210	      0.01003800	     -0.00025371	     -0.00149954	     -0.00091393	      0.01531924	     -0.00626696	      0.00252419	      0.02210845	     -0.01827864	     -0.00613640	      0.01327377	     -0.00561415	     -0.01279505	      0.02802725	     -0.03137833	     -0.02402335	      0.01484051	     -0.00752906	     -0.01592853	      0.03237930	     -0.03921203
      0.10000000	     -0.33083153	      0.14012462	     -0.14012462	      0.33083153	     -0.06698666	      0.54136259	      0.24333876	     -0.24333876	     -0.54136259	      0.06698666	     97.99493652	     78.32730591	     -1.71033429	    -13.94485242	     27.48276853	     28.95255832	      0.11912258	     -0.82893135	      0.15005133	     -0.41446568	      7.07755652	    -11.87072224	    -18.51723416	     -6.55867414	     24.40232767	      6.44439834	     28.51439373	     -6.42365458	     25.51527937	     -0.31629606	     24.07146754	     20.00574259	     25.46917394	     -4.32081218	     17.52347561	     23.29201720	     25.08817539	     -4.65731907	      7.81348535	      5.04973134	      0.00080904	     -0.03074995	     -0.00480737	      0.01641416	     -0.01766583	     -0.00856380	      0.00541073	     -0.06628329	     -0.00238228	      0.00668683	     -0.18370755	     -0.00026204	     -0.00347430	      0.00094968	      0.00019266	      0.00027268	      0.00010907	      0.00054535	      0.00034903	      0.00104708	      0.00058898	      0.00003630	     -0.00014911	     -0.00017893	      0.00256740	      0.00900765	      0.00626619	     -0.00839843	      0.02027809	     -0.01923372	      0.00256740	      0.00900765	      0.00626619	      0.00056570	      0.01879857	     -0.00987795	      0.00402886	      0.00500904	      0.01616203	      0.00000000	      0.00820830	      0.00000000	     -0.00735407	     -0.03398538	     -0.00677041	      0.01003691	     -0.00025367	     -0.00149926	     -0.00091382	      0.01531735	     -0.00626619	      0.00252388	      0.02210573	     -0.01827639	     -0.00613564	      0.01327214	     -0.00561346	     -0.01279347	      0.02802379	     -0.03137446	     -0.02402039	      0.01483869	     -0.00752813	     -0.01592657	      0.03237531	     -0.03920720
      0.13333333	     -0.33050467	      0.13998618	     -0.13998618	      0.33050467	     -0.06692047	      0.54082772	      0.24309834	     -0.24309834	     -0.54082772	      0.06692047	     98.06392588	     78.24991831	     -1.71153838	    -14.31458409	     27.54485863	     28.94350820	      0.12329706	     -0.80845253	      0.15488845	     -0.40422626	      6.85192356	    -11.50967835	    -17.84104867	     -7.55958727	     24.53865696	      6.63250071	     28.84457269	     -6.71297895	     24.43751083	     -0.13902781	     24.84976584	     21.29553997	     25.03435182	     -4.15408436	     17.18487046	     24.40856790	     24.66959262	     -4.57716048	      7.49198252	      5.01700195	      0.00081110	     -0.03075706	     -0.00480852	      0.01641392	     -0.01768270	     -0.00856463	      0.00541140	     -0.06628285	     -0.00238155	      0.00668595	     -0.18370771	     -0.00026190	     -0.00347321	      0.00094934	      0.00019267	      0.00027981	      0.00011192	      0.00055961	      0.00035815	      0.00107445	      0.00060438	      0.00003663	     -0.00014522	     -0.00017426	      0.00256486	      0.00899875	      0.00626000	     -0.00839014	      0.02025805	     -0.01921472	      0.00256486	      0.00899875	      0.00626000	      0.00056514	      0.01878000	     -0.00986819	      0.00402599	      0.00500409	      0.01615526	      0.00000000	      0.00819196	      0.00000000	     -0.00734680	     -0.03395180	     -0.00675686	      0.01027929	     -0.00026409	     -0.00159100	     -0.00091292	      0.01530222	     -0.00626000	      0.00252139	      0.02208388	     -0.01825833	     -0.00612958	      0.01325903	     -0.00560792	     -0.01278083	      0.02799611	     -0.03134347	     -0.02399666	      0.01482402	     -0.00752069	     -0.01591083	      0.03234333	     -0.03916846
      0.16666667	     -0.33046773	      0.13997053	     -0.13997053	      0.33046773	     -0.06691299	      0.54076728	      0.24307117	     -0.24307117	     -0.54076728	      0.06691299	     98.05752770	     78.24117306	     -1.71142671	    -14.36134286	     27.65124471	     29.16836157	      0.13428242	     -0.77569444	      0.16748106	     -0.38784722	      6.67684984	    -11.64349084	    -16.67007302	     -9.36370115	     24.05536930	      6.91752352	     29.54911279	     -7.21042084	     23.17833902	      0.16463841	     26.14532970	     23.44003010	     24.55315224	     -3.89843658	     16.71690459	     26.45042650	     24.30325125	     -4.36942307	      7.22403331	      5.04933700	      0.00081462	     -0.03076926	     -0.00481048	      0.01641997	     -0.01771160	     -0.00854408	      0.00539479	     -0.06629360	     -0.00239967	      0.00670783	     -0.18370373	     -0.00026535	     -0.00350020	      0.00095773	      0.00019239	      0.00028975	      0.00011590	      0.00057950	      0.00037088	      0.00111264	      0.00062586	      0.00003689	     -0.00014216	     -0.00017059	      0.00256457	      0.00899774	      0.00625930	     -0.00838920	      0.02025579	     -0.01921257	      0.00256457	      0.00899774	      0.00625930	      0.00056508	      0.01877790	     -0.00986709	      0.00402567	      0.00500353	      0.01615449	      0.00000000	      0.00819012	      0.00000000	     -0.00734598	     -0.03394800	     -0.00675533	      0.01030982	     -0.00026541	     -0.00160278	     -0.00091281	      0.01530051	     -0.00625930	      0.00252111	      0.02208142	     -0.01825629	     -0.00612890	      0.01325754	     -0.00560729	     -0.01277940	      0.02799298	     -0.03133996	     -0.02399398	      0.01482237	     -0.00751985	     -0.01590905	      0.03233971	     -0.03916409
